<svg width="1598" height="577" viewBox="0 0 1598 577" fill="none" xmlns="http://www.w3.org/2000/svg">
<path opacity="0.5" d="M806.48 155.188C806.48 156.392 805.473 157.375 804.24 157.375C803.007 157.375 802 156.392 802 155.188C802 153.983 803.007 153 804.24 153C805.486 153 806.48 153.971 806.48 155.188Z" fill="white"/>
<path opacity="0.5" d="M823.506 157.375C824.743 157.375 825.746 156.396 825.746 155.188C825.746 153.979 824.743 153 823.506 153C822.269 153 821.266 153.979 821.266 155.188C821.266 156.396 822.269 157.375 823.506 157.375Z" fill="white"/>
<path opacity="0.5" d="M842.76 157.375C843.997 157.375 845 156.396 845 155.188C845 153.979 843.997 153 842.76 153C841.523 153 840.52 153.979 840.52 155.188C840.52 156.396 841.523 157.375 842.76 157.375Z" fill="white"/>
<path opacity="0.5" d="M806.48 173.993C806.48 175.198 805.473 176.181 804.24 176.181C803.007 176.181 802 175.198 802 173.993C802 172.789 803.007 171.806 804.24 171.806C805.486 171.806 806.48 172.789 806.48 173.993Z" fill="white"/>
<path opacity="0.5" d="M823.506 176.181C824.743 176.181 825.746 175.202 825.746 173.993C825.746 172.785 824.743 171.806 823.506 171.806C822.269 171.806 821.266 172.785 821.266 173.993C821.266 175.202 822.269 176.181 823.506 176.181Z" fill="white"/>
<path opacity="0.5" d="M842.76 176.181C843.997 176.181 845 175.202 845 173.993C845 172.785 843.997 171.806 842.76 171.806C841.523 171.806 840.52 172.785 840.52 173.993C840.52 175.202 841.523 176.181 842.76 176.181Z" fill="white"/>
<path opacity="0.5" d="M806.48 192.812C806.48 194.016 805.473 195 804.24 195C803.007 195 802 194.016 802 192.812C802 191.607 803.007 190.624 804.24 190.624C805.486 190.624 806.48 191.607 806.48 192.812Z" fill="white"/>
<path opacity="0.5" d="M825.746 192.812C825.746 194.016 824.74 195 823.506 195C822.273 195 821.266 194.016 821.266 192.812C821.266 191.607 822.273 190.624 823.506 190.624C824.74 190.624 825.746 191.607 825.746 192.812Z" fill="white"/>
<path opacity="0.75" d="M845 192.812C845 194.016 843.993 195 842.76 195C841.527 195 840.52 194.016 840.52 192.812C840.52 191.607 841.527 190.624 842.76 190.624C844.006 190.624 845 191.607 845 192.812Z" fill="white"/>
<path opacity="0.5" d="M462.56 454.78C462.56 455.76 461.76 456.56 460.78 456.56C459.8 456.56 459 455.76 459 454.78C459 453.8 459.8 453 460.78 453C461.76 453 462.56 453.8 462.56 454.78Z" fill="white"/>
<path opacity="0.5" d="M477.87 454.78C477.87 455.76 477.07 456.56 476.09 456.56C475.11 456.56 474.31 455.76 474.31 454.78C474.31 453.8 475.11 453 476.09 453C477.07 453.01 477.87 453.8 477.87 454.78Z" fill="white"/>
<path opacity="0.5" d="M493.17 454.78C493.17 455.76 492.37 456.56 491.39 456.56C490.41 456.56 489.61 455.76 489.61 454.78C489.61 453.8 490.41 453 491.39 453C492.37 453 493.17 453.8 493.17 454.78Z" fill="white"/>
<path opacity="0.5" d="M462.56 470.09C462.56 471.07 461.76 471.87 460.78 471.87C459.8 471.87 459 471.07 459 470.09C459 469.11 459.8 468.31 460.78 468.31C461.76 468.31 462.56 469.11 462.56 470.09Z" fill="white"/>
<path opacity="0.5" d="M477.87 470.09C477.87 471.07 477.07 471.87 476.09 471.87C475.11 471.87 474.31 471.07 474.31 470.09C474.31 469.11 475.11 468.31 476.09 468.31C477.07 468.31 477.87 469.11 477.87 470.09Z" fill="white"/>
<path opacity="0.5" d="M493.17 470.09C493.17 471.07 492.37 471.87 491.39 471.87C490.41 471.87 489.61 471.07 489.61 470.09C489.61 469.11 490.41 468.31 491.39 468.31C492.37 468.31 493.17 469.11 493.17 470.09Z" fill="white"/>
<path opacity="0.5" d="M462.56 485.39C462.56 486.37 461.76 487.17 460.78 487.17C459.8 487.17 459 486.37 459 485.39C459 484.41 459.8 483.61 460.78 483.61C461.76 483.61 462.56 484.41 462.56 485.39Z" fill="white"/>
<path opacity="0.5" d="M477.87 485.39C477.87 486.37 477.07 487.17 476.09 487.17C475.11 487.17 474.31 486.37 474.31 485.39C474.31 484.41 475.11 483.61 476.09 483.61C477.07 483.62 477.87 484.41 477.87 485.39Z" fill="white"/>
<path opacity="0.5" d="M493.17 485.39C493.17 486.37 492.37 487.17 491.39 487.17C490.41 487.17 489.61 486.37 489.61 485.39C489.61 484.41 490.41 483.61 491.39 483.61C492.37 483.61 493.17 484.41 493.17 485.39Z" fill="white"/>
<path d="M730.393 328.855L611 444L727.055 555.926L846.448 440.781L730.393 328.855Z" stroke="#AE841A" stroke-width="30" stroke-miterlimit="10"/>
<path opacity="0.5" d="M1366.31 211.56C1367.29 211.56 1368.09 210.763 1368.09 209.78C1368.09 208.797 1367.29 208 1366.31 208C1365.33 208 1364.53 208.797 1364.53 209.78C1364.53 210.763 1365.33 211.56 1366.31 211.56Z" fill="white"/>
<path opacity="0.5" d="M1366.31 226.87C1367.29 226.87 1368.09 226.073 1368.09 225.09C1368.09 224.107 1367.29 223.31 1366.31 223.31C1365.33 223.31 1364.53 224.107 1364.53 225.09C1364.53 226.073 1365.33 226.87 1366.31 226.87Z" fill="white"/>
<path opacity="0.5" d="M1366.31 242.17C1367.29 242.17 1368.09 241.373 1368.09 240.39C1368.09 239.407 1367.29 238.61 1366.31 238.61C1365.33 238.61 1364.53 239.407 1364.53 240.39C1364.53 241.373 1365.33 242.17 1366.31 242.17Z" fill="white"/>
<path opacity="0.5" d="M1366.31 257.48C1367.29 257.48 1368.09 256.683 1368.09 255.7C1368.09 254.717 1367.29 253.92 1366.31 253.92C1365.33 253.92 1364.53 254.717 1364.53 255.7C1364.53 256.683 1365.33 257.48 1366.31 257.48Z" fill="white"/>
<path opacity="0.5" d="M1366.31 272.78C1367.29 272.78 1368.09 271.983 1368.09 271C1368.09 270.017 1367.29 269.22 1366.31 269.22C1365.33 269.22 1364.53 270.017 1364.53 271C1364.53 271.983 1365.33 272.78 1366.31 272.78Z" fill="white"/>
<path opacity="0.5" d="M1366.31 288.09C1367.29 288.09 1368.09 287.293 1368.09 286.31C1368.09 285.327 1367.29 284.53 1366.31 284.53C1365.33 284.53 1364.53 285.327 1364.53 286.31C1364.53 287.293 1365.33 288.09 1366.31 288.09Z" fill="white"/>
<path opacity="0.5" d="M1366.31 303.39C1367.29 303.39 1368.09 302.593 1368.09 301.61C1368.09 300.627 1367.29 299.83 1366.31 299.83C1365.33 299.83 1364.53 300.627 1364.53 301.61C1364.53 302.593 1365.33 303.39 1366.31 303.39Z" fill="white"/>
<path opacity="0.5" d="M1366.31 318.69C1365.33 318.69 1364.53 317.89 1364.53 316.91C1364.53 315.93 1365.33 315.13 1366.31 315.13C1367.29 315.13 1368.09 315.93 1368.09 316.91C1368.09 317.9 1367.29 318.69 1366.31 318.69Z" fill="white"/>
<path opacity="0.5" d="M1351.01 211.56C1350.03 211.56 1349.23 210.76 1349.23 209.78C1349.23 208.8 1350.03 208 1351.01 208C1351.99 208 1352.79 208.8 1352.79 209.78C1352.78 210.76 1351.99 211.56 1351.01 211.56Z" fill="white"/>
<path opacity="0.5" d="M1351.01 226.86C1350.03 226.86 1349.23 226.06 1349.23 225.08C1349.23 224.1 1350.03 223.3 1351.01 223.3C1351.99 223.3 1352.79 224.1 1352.79 225.08C1352.78 226.07 1351.99 226.86 1351.01 226.86Z" fill="white"/>
<path opacity="0.5" d="M1351.01 242.17C1350.03 242.17 1349.23 241.37 1349.23 240.39C1349.23 239.41 1350.03 238.61 1351.01 238.61C1351.99 238.61 1352.79 239.41 1352.79 240.39C1352.78 241.37 1351.99 242.17 1351.01 242.17Z" fill="white"/>
<path opacity="0.5" d="M1351.01 257.47C1350.03 257.47 1349.23 256.67 1349.23 255.69C1349.23 254.71 1350.03 253.91 1351.01 253.91C1351.99 253.91 1352.79 254.71 1352.79 255.69C1352.78 256.68 1351.99 257.47 1351.01 257.47Z" fill="white"/>
<path opacity="0.5" d="M1351.01 272.78C1350.03 272.78 1349.23 271.98 1349.23 271C1349.23 270.02 1350.03 269.22 1351.01 269.22C1351.99 269.22 1352.79 270.02 1352.79 271C1352.78 271.98 1351.99 272.78 1351.01 272.78Z" fill="white"/>
<path opacity="0.5" d="M1351.01 288.08C1350.03 288.08 1349.23 287.28 1349.23 286.3C1349.23 285.32 1350.03 284.52 1351.01 284.52C1351.99 284.52 1352.79 285.32 1352.79 286.3C1352.79 287.28 1351.99 288.08 1351.01 288.08Z" fill="white"/>
<path opacity="0.5" d="M1351.01 303.39C1350.03 303.39 1349.23 302.59 1349.23 301.61C1349.23 300.63 1350.03 299.83 1351.01 299.83C1351.99 299.83 1352.79 300.63 1352.79 301.61C1352.79 302.59 1351.99 303.39 1351.01 303.39Z" fill="white"/>
<path opacity="0.5" d="M1351.01 318.69C1350.03 318.69 1349.23 317.89 1349.23 316.91C1349.23 315.93 1350.03 315.13 1351.01 315.13C1351.99 315.13 1352.79 315.93 1352.79 316.91C1352.78 317.9 1351.99 318.69 1351.01 318.69Z" fill="white"/>
<path opacity="0.5" d="M1335.7 211.56C1336.68 211.56 1337.48 210.763 1337.48 209.78C1337.48 208.797 1336.68 208 1335.7 208C1334.72 208 1333.92 208.797 1333.92 209.78C1333.92 210.763 1334.72 211.56 1335.7 211.56Z" fill="white"/>
<path opacity="0.5" d="M1335.7 226.87C1336.68 226.87 1337.48 226.073 1337.48 225.09C1337.48 224.107 1336.68 223.31 1335.7 223.31C1334.72 223.31 1333.92 224.107 1333.92 225.09C1333.92 226.073 1334.72 226.87 1335.7 226.87Z" fill="white"/>
<path opacity="0.5" d="M1335.7 242.17C1336.68 242.17 1337.48 241.373 1337.48 240.39C1337.48 239.407 1336.68 238.61 1335.7 238.61C1334.72 238.61 1333.92 239.407 1333.92 240.39C1333.92 241.373 1334.72 242.17 1335.7 242.17Z" fill="white"/>
<path opacity="0.5" d="M1335.7 257.48C1336.68 257.48 1337.48 256.683 1337.48 255.7C1337.48 254.717 1336.68 253.92 1335.7 253.92C1334.72 253.92 1333.92 254.717 1333.92 255.7C1333.92 256.683 1334.72 257.48 1335.7 257.48Z" fill="white"/>
<path opacity="0.5" d="M1335.7 272.78C1336.68 272.78 1337.48 271.983 1337.48 271C1337.48 270.017 1336.68 269.22 1335.7 269.22C1334.72 269.22 1333.92 270.017 1333.92 271C1333.92 271.983 1334.72 272.78 1335.7 272.78Z" fill="white"/>
<path opacity="0.5" d="M1335.7 288.09C1336.68 288.09 1337.48 287.293 1337.48 286.31C1337.48 285.327 1336.68 284.53 1335.7 284.53C1334.72 284.53 1333.92 285.327 1333.92 286.31C1333.92 287.293 1334.72 288.09 1335.7 288.09Z" fill="white"/>
<path opacity="0.5" d="M1335.7 303.39C1336.68 303.39 1337.48 302.593 1337.48 301.61C1337.48 300.627 1336.68 299.83 1335.7 299.83C1334.72 299.83 1333.92 300.627 1333.92 301.61C1333.92 302.593 1334.72 303.39 1335.7 303.39Z" fill="white"/>
<path opacity="0.5" d="M1335.7 318.69C1334.72 318.69 1333.92 317.89 1333.92 316.91C1333.92 315.93 1334.72 315.13 1335.7 315.13C1336.68 315.13 1337.48 315.93 1337.48 316.91C1337.48 317.9 1336.68 318.69 1335.7 318.69Z" fill="white"/>
<path opacity="0.5" d="M1320.39 211.56C1321.37 211.56 1322.17 210.763 1322.17 209.78C1322.17 208.797 1321.37 208 1320.39 208C1319.41 208 1318.61 208.797 1318.61 209.78C1318.61 210.763 1319.41 211.56 1320.39 211.56Z" fill="white"/>
<path opacity="0.5" d="M1320.39 226.87C1321.37 226.87 1322.17 226.073 1322.17 225.09C1322.17 224.107 1321.37 223.31 1320.39 223.31C1319.41 223.31 1318.61 224.107 1318.61 225.09C1318.61 226.073 1319.41 226.87 1320.39 226.87Z" fill="white"/>
<path opacity="0.5" d="M1320.39 242.17C1321.37 242.17 1322.17 241.373 1322.17 240.39C1322.17 239.407 1321.37 238.61 1320.39 238.61C1319.41 238.61 1318.61 239.407 1318.61 240.39C1318.61 241.373 1319.41 242.17 1320.39 242.17Z" fill="white"/>
<path opacity="0.5" d="M1320.39 257.48C1321.37 257.48 1322.17 256.683 1322.17 255.7C1322.17 254.717 1321.37 253.92 1320.39 253.92C1319.41 253.92 1318.61 254.717 1318.61 255.7C1318.61 256.683 1319.41 257.48 1320.39 257.48Z" fill="white"/>
<path opacity="0.5" d="M1320.39 272.78C1321.37 272.78 1322.17 271.983 1322.17 271C1322.17 270.017 1321.37 269.22 1320.39 269.22C1319.41 269.22 1318.61 270.017 1318.61 271C1318.61 271.983 1319.41 272.78 1320.39 272.78Z" fill="white"/>
<path opacity="0.5" d="M1320.39 288.09C1321.37 288.09 1322.17 287.293 1322.17 286.31C1322.17 285.327 1321.37 284.53 1320.39 284.53C1319.41 284.53 1318.61 285.327 1318.61 286.31C1318.61 287.293 1319.41 288.09 1320.39 288.09Z" fill="white"/>
<path opacity="0.5" d="M1320.39 303.39C1321.37 303.39 1322.17 302.593 1322.17 301.61C1322.17 300.627 1321.37 299.83 1320.39 299.83C1319.41 299.83 1318.61 300.627 1318.61 301.61C1318.61 302.593 1319.41 303.39 1320.39 303.39Z" fill="white"/>
<path opacity="0.5" d="M1320.39 318.69C1319.41 318.69 1318.61 317.89 1318.61 316.91C1318.61 315.93 1319.41 315.13 1320.39 315.13C1321.37 315.13 1322.17 315.93 1322.17 316.91C1322.17 317.9 1321.38 318.69 1320.39 318.69Z" fill="white"/>
<path opacity="0.5" d="M1305.09 211.56C1306.07 211.56 1306.87 210.763 1306.87 209.78C1306.87 208.797 1306.07 208 1305.09 208C1304.11 208 1303.31 208.797 1303.31 209.78C1303.31 210.763 1304.11 211.56 1305.09 211.56Z" fill="white"/>
<path opacity="0.5" d="M1305.09 226.87C1306.07 226.87 1306.87 226.073 1306.87 225.09C1306.87 224.107 1306.07 223.31 1305.09 223.31C1304.11 223.31 1303.31 224.107 1303.31 225.09C1303.31 226.073 1304.11 226.87 1305.09 226.87Z" fill="white"/>
<path opacity="0.5" d="M1305.09 242.17C1306.07 242.17 1306.87 241.373 1306.87 240.39C1306.87 239.407 1306.07 238.61 1305.09 238.61C1304.11 238.61 1303.31 239.407 1303.31 240.39C1303.31 241.373 1304.11 242.17 1305.09 242.17Z" fill="white"/>
<path opacity="0.5" d="M1305.09 257.48C1306.07 257.48 1306.87 256.683 1306.87 255.7C1306.87 254.717 1306.07 253.92 1305.09 253.92C1304.11 253.92 1303.31 254.717 1303.31 255.7C1303.31 256.683 1304.11 257.48 1305.09 257.48Z" fill="white"/>
<path opacity="0.5" d="M1305.09 272.78C1306.07 272.78 1306.87 271.983 1306.87 271C1306.87 270.017 1306.07 269.22 1305.09 269.22C1304.11 269.22 1303.31 270.017 1303.31 271C1303.31 271.983 1304.11 272.78 1305.09 272.78Z" fill="white"/>
<path opacity="0.5" d="M1305.09 288.09C1306.07 288.09 1306.87 287.293 1306.87 286.31C1306.87 285.327 1306.07 284.53 1305.09 284.53C1304.11 284.53 1303.31 285.327 1303.31 286.31C1303.31 287.293 1304.11 288.09 1305.09 288.09Z" fill="white"/>
<path opacity="0.5" d="M1305.09 303.39C1306.07 303.39 1306.87 302.593 1306.87 301.61C1306.87 300.627 1306.07 299.83 1305.09 299.83C1304.11 299.83 1303.31 300.627 1303.31 301.61C1303.31 302.593 1304.11 303.39 1305.09 303.39Z" fill="white"/>
<path opacity="0.5" d="M1305.09 318.69C1304.11 318.69 1303.31 317.89 1303.31 316.91C1303.31 315.93 1304.11 315.13 1305.09 315.13C1306.07 315.13 1306.87 315.93 1306.87 316.91C1306.87 317.9 1306.07 318.69 1305.09 318.69Z" fill="white"/>
<path opacity="0.5" d="M1289.78 211.56C1290.76 211.56 1291.56 210.763 1291.56 209.78C1291.56 208.797 1290.76 208 1289.78 208C1288.8 208 1288 208.797 1288 209.78C1288 210.763 1288.8 211.56 1289.78 211.56Z" fill="white"/>
<path opacity="0.5" d="M1289.78 226.87C1290.76 226.87 1291.56 226.073 1291.56 225.09C1291.56 224.107 1290.76 223.31 1289.78 223.31C1288.8 223.31 1288 224.107 1288 225.09C1288 226.073 1288.8 226.87 1289.78 226.87Z" fill="white"/>
<path opacity="0.5" d="M1289.78 242.17C1290.76 242.17 1291.56 241.373 1291.56 240.39C1291.56 239.407 1290.76 238.61 1289.78 238.61C1288.8 238.61 1288 239.407 1288 240.39C1288 241.373 1288.8 242.17 1289.78 242.17Z" fill="white"/>
<path opacity="0.5" d="M1289.78 257.48C1290.76 257.48 1291.56 256.683 1291.56 255.7C1291.56 254.717 1290.76 253.92 1289.78 253.92C1288.8 253.92 1288 254.717 1288 255.7C1288 256.683 1288.8 257.48 1289.78 257.48Z" fill="white"/>
<path opacity="0.5" d="M1289.78 272.78C1290.76 272.78 1291.56 271.983 1291.56 271C1291.56 270.017 1290.76 269.22 1289.78 269.22C1288.8 269.22 1288 270.017 1288 271C1288 271.983 1288.8 272.78 1289.78 272.78Z" fill="white"/>
<path opacity="0.5" d="M1289.78 288.09C1290.76 288.09 1291.56 287.293 1291.56 286.31C1291.56 285.327 1290.76 284.53 1289.78 284.53C1288.8 284.53 1288 285.327 1288 286.31C1288 287.293 1288.8 288.09 1289.78 288.09Z" fill="white"/>
<path opacity="0.5" d="M1289.78 303.39C1290.76 303.39 1291.56 302.593 1291.56 301.61C1291.56 300.627 1290.76 299.83 1289.78 299.83C1288.8 299.83 1288 300.627 1288 301.61C1288 302.593 1288.8 303.39 1289.78 303.39Z" fill="white"/>
<path opacity="0.5" d="M1289.78 318.69C1288.8 318.69 1288 317.89 1288 316.91C1288 315.93 1288.8 315.13 1289.78 315.13C1290.76 315.13 1291.56 315.93 1291.56 316.91C1291.56 317.9 1290.76 318.69 1289.78 318.69Z" fill="white"/>
<path opacity="0.5" d="M1327.83 35L1093.66 260.836L1327.83 486.673L1562 260.836L1327.83 35Z" stroke="#AE841A" stroke-width="50" stroke-miterlimit="10"/>
<path opacity="0.5" d="M179.56 238.78C179.56 239.76 178.76 240.56 177.78 240.56C176.8 240.56 176 239.76 176 238.78C176 237.8 176.8 237 177.78 237C178.76 237 179.56 237.8 179.56 238.78Z" fill="white"/>
<path opacity="0.5" d="M193.09 240.56C194.073 240.56 194.87 239.763 194.87 238.78C194.87 237.797 194.073 237 193.09 237C192.107 237 191.31 237.797 191.31 238.78C191.31 239.763 192.107 240.56 193.09 240.56Z" fill="white"/>
<path opacity="0.5" d="M208.39 240.56C209.373 240.56 210.17 239.763 210.17 238.78C210.17 237.797 209.373 237 208.39 237C207.407 237 206.61 237.797 206.61 238.78C206.61 239.763 207.407 240.56 208.39 240.56Z" fill="white"/>
<path opacity="0.5" d="M225.48 238.78C225.48 239.76 224.68 240.56 223.7 240.56C222.72 240.56 221.92 239.76 221.92 238.78C221.92 237.8 222.72 237 223.7 237C224.68 237 225.48 237.8 225.48 238.78Z" fill="white"/>
<path opacity="0.5" d="M239 240.56C239.983 240.56 240.78 239.763 240.78 238.78C240.78 237.797 239.983 237 239 237C238.017 237 237.22 237.797 237.22 238.78C237.22 239.763 238.017 240.56 239 240.56Z" fill="white"/>
<path opacity="0.5" d="M254.31 240.56C255.293 240.56 256.09 239.763 256.09 238.78C256.09 237.797 255.293 237 254.31 237C253.327 237 252.53 237.797 252.53 238.78C252.53 239.763 253.327 240.56 254.31 240.56Z" fill="white"/>
<path opacity="0.5" d="M269.61 240.56C270.593 240.56 271.39 239.763 271.39 238.78C271.39 237.797 270.593 237 269.61 237C268.627 237 267.83 237.797 267.83 238.78C267.83 239.763 268.627 240.56 269.61 240.56Z" fill="white"/>
<path opacity="0.5" d="M284.92 240.56C285.903 240.56 286.7 239.763 286.7 238.78C286.7 237.797 285.903 237 284.92 237C283.937 237 283.14 237.797 283.14 238.78C283.14 239.763 283.937 240.56 284.92 240.56Z" fill="white"/>
<path opacity="0.5" d="M179.56 254.08C179.56 255.06 178.76 255.86 177.78 255.86C176.8 255.86 176 255.06 176 254.08C176 253.1 176.8 252.3 177.78 252.3C178.76 252.31 179.56 253.1 179.56 254.08Z" fill="white"/>
<path opacity="0.5" d="M193.09 255.86C194.073 255.86 194.87 255.063 194.87 254.08C194.87 253.097 194.073 252.3 193.09 252.3C192.107 252.3 191.31 253.097 191.31 254.08C191.31 255.063 192.107 255.86 193.09 255.86Z" fill="white"/>
<path opacity="0.5" d="M208.39 255.86C209.373 255.86 210.17 255.063 210.17 254.08C210.17 253.097 209.373 252.3 208.39 252.3C207.407 252.3 206.61 253.097 206.61 254.08C206.61 255.063 207.407 255.86 208.39 255.86Z" fill="white"/>
<path opacity="0.5" d="M225.48 254.08C225.48 255.06 224.68 255.86 223.7 255.86C222.72 255.86 221.92 255.06 221.92 254.08C221.92 253.1 222.72 252.3 223.7 252.3C224.68 252.31 225.48 253.1 225.48 254.08Z" fill="white"/>
<path opacity="0.5" d="M239 255.86C239.983 255.86 240.78 255.063 240.78 254.08C240.78 253.097 239.983 252.3 239 252.3C238.017 252.3 237.22 253.097 237.22 254.08C237.22 255.063 238.017 255.86 239 255.86Z" fill="white"/>
<path opacity="0.5" d="M254.31 255.86C255.293 255.86 256.09 255.063 256.09 254.08C256.09 253.097 255.293 252.3 254.31 252.3C253.327 252.3 252.53 253.097 252.53 254.08C252.53 255.063 253.327 255.86 254.31 255.86Z" fill="white"/>
<path opacity="0.5" d="M269.61 255.86C270.593 255.86 271.39 255.063 271.39 254.08C271.39 253.097 270.593 252.3 269.61 252.3C268.627 252.3 267.83 253.097 267.83 254.08C267.83 255.063 268.627 255.86 269.61 255.86Z" fill="white"/>
<path opacity="0.5" d="M284.92 255.86C285.903 255.86 286.7 255.063 286.7 254.08C286.7 253.097 285.903 252.3 284.92 252.3C283.937 252.3 283.14 253.097 283.14 254.08C283.14 255.063 283.937 255.86 284.92 255.86Z" fill="white"/>
<path opacity="0.5" d="M179.56 269.39C179.56 270.37 178.76 271.17 177.78 271.17C176.8 271.17 176 270.37 176 269.39C176 268.41 176.8 267.61 177.78 267.61C178.76 267.61 179.56 268.41 179.56 269.39Z" fill="white"/>
<path opacity="0.5" d="M193.09 271.17C194.073 271.17 194.87 270.373 194.87 269.39C194.87 268.407 194.073 267.61 193.09 267.61C192.107 267.61 191.31 268.407 191.31 269.39C191.31 270.373 192.107 271.17 193.09 271.17Z" fill="white"/>
<path opacity="0.5" d="M208.39 271.17C209.373 271.17 210.17 270.373 210.17 269.39C210.17 268.407 209.373 267.61 208.39 267.61C207.407 267.61 206.61 268.407 206.61 269.39C206.61 270.373 207.407 271.17 208.39 271.17Z" fill="white"/>
<path opacity="0.5" d="M225.48 269.39C225.48 270.37 224.68 271.17 223.7 271.17C222.72 271.17 221.92 270.37 221.92 269.39C221.92 268.41 222.72 267.61 223.7 267.61C224.68 267.61 225.48 268.41 225.48 269.39Z" fill="white"/>
<path opacity="0.5" d="M239 271.17C239.983 271.17 240.78 270.373 240.78 269.39C240.78 268.407 239.983 267.61 239 267.61C238.017 267.61 237.22 268.407 237.22 269.39C237.22 270.373 238.017 271.17 239 271.17Z" fill="white"/>
<path opacity="0.5" d="M254.31 271.17C255.293 271.17 256.09 270.373 256.09 269.39C256.09 268.407 255.293 267.61 254.31 267.61C253.327 267.61 252.53 268.407 252.53 269.39C252.53 270.373 253.327 271.17 254.31 271.17Z" fill="white"/>
<path opacity="0.5" d="M269.61 271.17C270.593 271.17 271.39 270.373 271.39 269.39C271.39 268.407 270.593 267.61 269.61 267.61C268.627 267.61 267.83 268.407 267.83 269.39C267.83 270.373 268.627 271.17 269.61 271.17Z" fill="white"/>
<path opacity="0.5" d="M284.92 271.17C285.903 271.17 286.7 270.373 286.7 269.39C286.7 268.407 285.903 267.61 284.92 267.61C283.937 267.61 283.14 268.407 283.14 269.39C283.14 270.373 283.937 271.17 284.92 271.17Z" fill="white"/>
<path opacity="0.5" d="M179.56 284.69C179.56 285.67 178.76 286.47 177.78 286.47C176.8 286.47 176 285.67 176 284.69C176 283.71 176.8 282.91 177.78 282.91C178.76 282.92 179.56 283.71 179.56 284.69Z" fill="white"/>
<path opacity="0.5" d="M193.09 286.47C194.073 286.47 194.87 285.673 194.87 284.69C194.87 283.707 194.073 282.91 193.09 282.91C192.107 282.91 191.31 283.707 191.31 284.69C191.31 285.673 192.107 286.47 193.09 286.47Z" fill="white"/>
<path opacity="0.5" d="M208.39 286.47C209.373 286.47 210.17 285.673 210.17 284.69C210.17 283.707 209.373 282.91 208.39 282.91C207.407 282.91 206.61 283.707 206.61 284.69C206.61 285.673 207.407 286.47 208.39 286.47Z" fill="white"/>
<path opacity="0.5" d="M225.48 284.69C225.48 285.67 224.68 286.47 223.7 286.47C222.72 286.47 221.92 285.67 221.92 284.69C221.92 283.71 222.72 282.91 223.7 282.91C224.68 282.92 225.48 283.71 225.48 284.69Z" fill="white"/>
<path opacity="0.5" d="M239 286.47C239.983 286.47 240.78 285.673 240.78 284.69C240.78 283.707 239.983 282.91 239 282.91C238.017 282.91 237.22 283.707 237.22 284.69C237.22 285.673 238.017 286.47 239 286.47Z" fill="white"/>
<path opacity="0.5" d="M254.31 286.47C255.293 286.47 256.09 285.673 256.09 284.69C256.09 283.707 255.293 282.91 254.31 282.91C253.327 282.91 252.53 283.707 252.53 284.69C252.53 285.673 253.327 286.47 254.31 286.47Z" fill="white"/>
<path opacity="0.5" d="M269.61 286.47C270.593 286.47 271.39 285.673 271.39 284.69C271.39 283.707 270.593 282.91 269.61 282.91C268.627 282.91 267.83 283.707 267.83 284.69C267.83 285.673 268.627 286.47 269.61 286.47Z" fill="white"/>
<path opacity="0.5" d="M284.92 286.47C285.903 286.47 286.7 285.673 286.7 284.69C286.7 283.707 285.903 282.91 284.92 282.91C283.937 282.91 283.14 283.707 283.14 284.69C283.14 285.673 283.937 286.47 284.92 286.47Z" fill="white"/>
<path opacity="0.5" d="M179.56 300C179.56 300.98 178.76 301.78 177.78 301.78C176.8 301.78 176 300.98 176 300C176 299.02 176.8 298.22 177.78 298.22C178.76 298.22 179.56 299.02 179.56 300Z" fill="white"/>
<path opacity="0.5" d="M193.09 301.78C194.073 301.78 194.87 300.983 194.87 300C194.87 299.017 194.073 298.22 193.09 298.22C192.107 298.22 191.31 299.017 191.31 300C191.31 300.983 192.107 301.78 193.09 301.78Z" fill="white"/>
<path opacity="0.5" d="M208.39 301.78C209.373 301.78 210.17 300.983 210.17 300C210.17 299.017 209.373 298.22 208.39 298.22C207.407 298.22 206.61 299.017 206.61 300C206.61 300.983 207.407 301.78 208.39 301.78Z" fill="white"/>
<path opacity="0.5" d="M225.48 300C225.48 300.98 224.68 301.78 223.7 301.78C222.72 301.78 221.92 300.98 221.92 300C221.92 299.02 222.72 298.22 223.7 298.22C224.68 298.22 225.48 299.02 225.48 300Z" fill="white"/>
<path opacity="0.5" d="M239 301.78C239.983 301.78 240.78 300.983 240.78 300C240.78 299.017 239.983 298.22 239 298.22C238.017 298.22 237.22 299.017 237.22 300C237.22 300.983 238.017 301.78 239 301.78Z" fill="white"/>
<path opacity="0.5" d="M254.31 301.78C255.293 301.78 256.09 300.983 256.09 300C256.09 299.017 255.293 298.22 254.31 298.22C253.327 298.22 252.53 299.017 252.53 300C252.53 300.983 253.327 301.78 254.31 301.78Z" fill="white"/>
<path opacity="0.5" d="M269.61 301.78C270.593 301.78 271.39 300.983 271.39 300C271.39 299.017 270.593 298.22 269.61 298.22C268.627 298.22 267.83 299.017 267.83 300C267.83 300.983 268.627 301.78 269.61 301.78Z" fill="white"/>
<path opacity="0.5" d="M284.92 301.78C285.903 301.78 286.7 300.983 286.7 300C286.7 299.017 285.903 298.22 284.92 298.22C283.937 298.22 283.14 299.017 283.14 300C283.14 300.983 283.937 301.78 284.92 301.78Z" fill="white"/>
<path opacity="0.5" d="M179.56 315.31C179.56 316.29 178.76 317.09 177.78 317.09C176.8 317.09 176 316.29 176 315.31C176 314.33 176.8 313.53 177.78 313.53C178.76 313.53 179.56 314.32 179.56 315.31Z" fill="white"/>
<path opacity="0.5" d="M193.09 317.09C194.073 317.09 194.87 316.293 194.87 315.31C194.87 314.327 194.073 313.53 193.09 313.53C192.107 313.53 191.31 314.327 191.31 315.31C191.31 316.293 192.107 317.09 193.09 317.09Z" fill="white"/>
<path opacity="0.5" d="M208.39 317.09C209.373 317.09 210.17 316.293 210.17 315.31C210.17 314.327 209.373 313.53 208.39 313.53C207.407 313.53 206.61 314.327 206.61 315.31C206.61 316.293 207.407 317.09 208.39 317.09Z" fill="white"/>
<path opacity="0.5" d="M225.48 315.31C225.48 316.29 224.68 317.09 223.7 317.09C222.72 317.09 221.92 316.29 221.92 315.31C221.92 314.33 222.72 313.53 223.7 313.53C224.68 313.53 225.48 314.32 225.48 315.31Z" fill="white"/>
<path opacity="0.5" d="M239 317.09C239.983 317.09 240.78 316.293 240.78 315.31C240.78 314.327 239.983 313.53 239 313.53C238.017 313.53 237.22 314.327 237.22 315.31C237.22 316.293 238.017 317.09 239 317.09Z" fill="white"/>
<path opacity="0.5" d="M254.31 317.09C255.293 317.09 256.09 316.293 256.09 315.31C256.09 314.327 255.293 313.53 254.31 313.53C253.327 313.53 252.53 314.327 252.53 315.31C252.53 316.293 253.327 317.09 254.31 317.09Z" fill="white"/>
<path opacity="0.5" d="M269.61 317.09C270.593 317.09 271.39 316.293 271.39 315.31C271.39 314.327 270.593 313.53 269.61 313.53C268.627 313.53 267.83 314.327 267.83 315.31C267.83 316.293 268.627 317.09 269.61 317.09Z" fill="white"/>
<path opacity="0.5" d="M284.92 317.09C285.903 317.09 286.7 316.293 286.7 315.31C286.7 314.327 285.903 313.53 284.92 313.53C283.937 313.53 283.14 314.327 283.14 315.31C283.14 316.293 283.937 317.09 284.92 317.09Z" fill="white"/>
<path opacity="0.5" d="M224.261 89.9996L36 271.563L223.093 452L411.354 270.437L224.261 89.9996Z" stroke="#AE841A" stroke-width="50" stroke-miterlimit="10"/>
</svg>
